<?xml version="1.0" encoding="UTF-8"?>
<svg version="1.1" xmlns="http://www.w3.org/2000/svg" width="512" height="512">
<path d="M0 0 C4.85811134 0.00008059 9.71612702 -0.00676905 14.57421875 -0.02050781 C69.30737219 -0.17269615 124.64117681 0.31160293 179.03369141 7.12280273 C180.21817871 7.26830566 181.40266602 7.41380859 182.62304688 7.5637207 C194.0687079 9.11754195 205.75262216 11.48391289 216.03369141 16.93530273 C216.69828369 17.27891846 217.36287598 17.62253418 218.04760742 17.9765625 C223.84237713 21.06790423 228.88259557 24.73582475 233.72119141 29.18530273 C234.49978516 29.88397461 235.27837891 30.58264648 236.08056641 31.30249023 C241.75105882 36.64949818 245.93851642 42.38560264 249.72119141 49.18530273 C250.50816406 50.59682617 250.50816406 50.59682617 251.31103516 52.03686523 C259.04447502 67.2676094 261.0630507 84.17426969 262.97119141 100.93530273 C263.09581757 102.02805511 263.09581757 102.02805511 263.22296143 103.1428833 C265.23166169 121.07377666 265.88973772 138.87977532 265.92431641 156.91186523 C265.92714378 157.92878826 265.92997116 158.94571129 265.93288422 159.99345016 C265.94777717 165.39415482 265.95706433 170.79483354 265.96142578 176.19555664 C265.96577393 180.56608597 265.97953693 184.93641383 266.00244141 189.30688477 C266.58885996 303.5603618 266.58885996 303.5603618 240.72119141 334.18530273 C240.27388672 334.77698242 239.82658203 335.36866211 239.36572266 335.97827148 C226.41384656 352.57642355 204.88526785 360.07026743 184.76171875 362.80688477 C182.97822021 363.02513916 182.97822021 363.02513916 181.15869141 363.24780273 C180.51458313 363.328349 179.87047485 363.40889526 179.20684814 363.49188232 C125.80831419 370.0951939 71.3624903 370.55304183 17.63720703 370.44604492 C11.87433258 370.43465182 6.1116431 370.4414521 0.34877491 370.45292759 C-24.03140131 370.49393606 -48.37227554 370.19645586 -72.73583984 369.25952148 C-73.8098555 369.21828911 -74.88387115 369.17705673 -75.99043274 369.13457489 C-193.33784727 364.52479942 -193.33784727 364.52479942 -220.65380859 335.23217773 C-224.4835403 330.9141278 -227.48758325 326.2260601 -230.27880859 321.18530273 C-230.72611328 320.44538086 -231.17341797 319.70545898 -231.63427734 318.94311523 C-248.28884483 289.32360751 -246.4179899 245.64636922 -246.48193359 212.67749023 C-246.48476097 211.67159977 -246.48758835 210.6657093 -246.4905014 209.62933731 C-246.50539302 204.28698732 -246.51468096 198.94466355 -246.51904297 193.60229492 C-246.52339052 189.28026719 -246.53715136 184.95844327 -246.56005859 180.63647461 C-247.16930089 63.2634027 -247.16930089 63.2634027 -216.15380859 30.56030273 C-186.06214087 1.46614886 -137.66303457 4.11505271 -98.59130859 2.12280273 C-97.81077118 2.08250946 -97.03023376 2.04221619 -96.2260437 2.0007019 C-91.21276571 1.74495807 -86.19878242 1.51600311 -81.18334961 1.30673218 C-79.20244434 1.22391695 -77.22165173 1.13837297 -75.2409668 1.05044556 C-50.16959902 -0.03559022 -25.09040379 -0.00218234 0 0 Z M-45.27880859 41.18530273 C-46.94550598 41.23427704 -46.94550598 41.23427704 -48.64587402 41.28424072 C-102.38895371 42.7777595 -102.38895371 42.7777595 -155.90380859 47.68530273 C-156.74927246 47.79156982 -157.59473633 47.89783691 -158.46582031 48.00732422 C-171.81986286 49.90494559 -182.46835962 54.39640964 -191.48974609 64.64624023 C-195.62651389 70.5171989 -197.95324825 76.48521422 -199.34130859 83.49780273 C-199.5041333 84.29758545 -199.66695801 85.09736816 -199.8347168 85.92138672 C-204.90681045 112.27988809 -205.43250648 139.24826561 -205.90380859 165.99780273 C-205.92560181 167.23140533 -205.94739502 168.46500793 -205.96984863 169.73599243 C-206.59844485 206.94065569 -206.8527958 245.09465998 -200.34130859 281.87280273 C-200.19588623 282.69643311 -200.05046387 283.52006348 -199.90063477 284.36865234 C-197.41431242 296.90807919 -192.18192748 307.05121627 -181.72802734 314.65405273 C-154.52519771 331.66124447 -105.51173741 326.87117251 -74.27880859 328.18530273 C-73.0305127 328.23928223 -71.7822168 328.29326172 -70.49609375 328.34887695 C-62.58330004 328.68170513 -54.6694699 328.92659279 -46.7522583 329.12347412 C-44.9847784 329.16765567 -43.21732493 329.21289961 -41.44989014 329.2588501 C-6.02520962 330.17721799 29.29997437 330.24081567 64.72119141 329.18530273 C65.832323 329.1526532 66.94345459 329.12000366 68.08825684 329.08636475 C142.66931616 332.48973383 142.66931616 332.48973383 208.46337891 308.45874023 C214.17205289 302.23884172 217.15148619 295.1370209 218.78369141 286.93530273 C218.94651611 286.13882324 219.10934082 285.34234375 219.27709961 284.52172852 C224.29405168 258.42768413 224.86959486 231.60818061 225.34619141 205.12280273 C225.36798462 203.91554535 225.38977783 202.70828796 225.41223145 201.46444702 C226.07235447 163.16374293 226.59680629 123.78466108 219.34619141 85.99780273 C219.1615332 85.01884033 218.976875 84.03987793 218.78662109 83.03125 C216.52688798 72.42493218 211.16997689 63.05771843 202.43603516 56.45874023 C193.71734377 50.84893247 183.96638497 48.9085243 173.78369141 47.68530273 C172.78176758 47.56421143 171.77984375 47.44312012 170.74755859 47.31835938 C99.41934507 39.24689948 26.37491099 39.05010145 -45.27880859 41.18530273 Z " fill="#000000" transform="translate(246.27880859375,71.814697265625)"/>
<path d="M0 0 C4.28456404 1.42818801 7.1910008 2.51298523 10.921875 4.73046875 C11.85128906 5.27832031 12.78070313 5.82617188 13.73828125 6.390625 C14.73214844 6.98359375 15.72601563 7.5765625 16.75 8.1875 C18.91105633 9.46292098 21.072529 10.73763673 23.234375 12.01171875 C24.35005859 12.67091309 25.46574219 13.33010742 26.61523438 14.00927734 C32.05592025 17.20917294 37.52821474 20.35368231 43 23.5 C51.34837951 28.30782754 59.68243649 33.13905955 68 38 C76.27777087 42.83676436 84.56941929 47.64864069 92.875 52.4375 C93.94218262 53.05286621 95.00936523 53.66823242 96.10888672 54.30224609 C101.18601752 57.22863199 106.2645373 60.15258603 111.34506226 63.07307434 C113.1250134 64.09649255 114.90460669 65.12053013 116.68408203 66.14477539 C118.91349337 67.42778627 121.14359376 68.70960088 123.37451172 69.98999023 C128.98835339 73.22180988 134.53276032 76.52561507 140 80 C138.7220314 83.8339058 137.52549332 84.10636815 134.03125 86.00390625 C132.99427979 86.57423584 131.95730957 87.14456543 130.88891602 87.73217773 C129.77057373 88.33618408 128.65223145 88.94019043 127.5 89.5625 C125.18543129 90.83454357 122.87162963 92.10798382 120.55859375 93.3828125 C119.42663574 94.00446289 118.29467773 94.62611328 117.12841797 95.26660156 C113.2328897 97.42504161 109.38845887 99.65862896 105.5625 101.9375 C98.5535449 106.09914843 91.5019648 110.18330035 84.4375 114.25 C75.94343734 119.14145305 67.46231622 124.05382528 59 129 C49.48985446 134.55756021 39.9589591 140.07823228 30.41210938 145.57250977 C25.33398755 148.49551682 20.26143934 151.42676537 15.20703125 154.390625 C14.32249268 154.90794189 13.4379541 155.42525879 12.52661133 155.95825195 C10.88502193 156.91934869 9.24541511 157.8838427 7.6081543 158.85229492 C2.22307717 162 2.22307717 162 0 162 C0 108.54 0 55.08 0 0 Z " fill="#000000" transform="translate(205,176)"/>
</svg>
